<svg xmlns="http://www.w3.org/2000/svg" viewBox="0 0 600 600" role="img" aria-label="About the founder">
  <rect width="600" height="600" fill="#FAF7F1"/>
  <circle cx="300" cy="280" r="220" fill="#F2E2C4"/>
  <g transform="translate(300 320)">
    <ellipse cx="0" cy="120" rx="160" ry="40" fill="#D89B3A" opacity="0.25"/>
    <path d="M -90 60 C -100 -40 -60 -100 0 -100 C 60 -100 100 -40 90 60 Z" fill="#1B2240"/>
    <circle cx="0" cy="-130" r="56" fill="#1B2240"/>
    <g transform="translate(35 10)">
      <ellipse cx="0" cy="20" rx="38" ry="46" fill="#D89B3A"/>
      <circle cx="0" cy="-26" r="22" fill="#FFE9C2"/>
      <circle cx="-7" cy="-28" r="2" fill="#1B2240"/>
      <circle cx="7" cy="-28" r="2" fill="#1B2240"/>
      <path d="M -5 -18 Q 0 -14 5 -18" stroke="#1B2240" stroke-width="1.5" fill="none"/>
    </g>
  </g>
  <g fill="#D89B3A" opacity="0.6">
    <circle cx="80" cy="100" r="3"/>
    <circle cx="520" cy="120" r="4"/>
    <circle cx="100" cy="500" r="3"/>
    <circle cx="510" cy="490" r="3"/>
  </g>
</svg>
