<svg xmlns="http://www.w3.org/2000/svg" viewBox="0 0 800 500" role="img" aria-label="How to get a baby to sleep faster">
  <rect width="800" height="500" fill="#1B2240"/>
  <circle cx="640" cy="140" r="70" fill="#FFE9C2"/>
  <circle cx="620" cy="125" r="60" fill="#1B2240" opacity="0.35"/>
  <g fill="#FAF7F1" opacity="0.85">
    <circle cx="80" cy="80" r="2"/>
    <circle cx="180" cy="60" r="1.5"/>
    <circle cx="280" cy="100" r="2"/>
    <circle cx="400" cy="70" r="1.5"/>
    <circle cx="500" cy="120" r="2"/>
    <circle cx="120" cy="180" r="1"/>
    <circle cx="320" cy="200" r="1.5"/>
  </g>
  <g transform="translate(200 240)" fill="#FAF7F1" font-family="Georgia, serif" font-style="italic">
    <text x="0" y="0" font-size="48">z</text>
    <text x="40" y="-30" font-size="64">Z</text>
    <text x="100" y="-70" font-size="84">Z</text>
  </g>
  <g transform="translate(400 320)">
    <ellipse cx="0" cy="60" rx="180" ry="20" fill="#2A2F55"/>
    <path d="M -150 40 Q -150 -10 -100 -10 L 100 -10 Q 150 -10 150 40 Z" fill="#D89B3A"/>
    <ellipse cx="0" cy="-10" rx="60" ry="14" fill="#FAF7F1"/>
    <circle cx="0" cy="-22" r="18" fill="#FFE9C2"/>
  </g>
</svg>
