<svg xmlns="http://www.w3.org/2000/svg" viewBox="0 0 800 500" role="img" aria-label="Bedtime Routine Checklist">
  <rect width="800" height="500" fill="#F2E2C4"/>
  <circle cx="220" cy="250" r="140" fill="#FAF7F1" stroke="#1B2240" stroke-width="6"/>
  <g stroke="#1B2240" stroke-width="4" stroke-linecap="round">
    <line x1="220" y1="250" x2="220" y2="160"/>
    <line x1="220" y1="250" x2="280" y2="290"/>
  </g>
  <circle cx="220" cy="250" r="8" fill="#D89B3A"/>
  <g fill="#1B2240" font-family="Georgia, serif" font-size="20">
    <text x="216" y="135" text-anchor="middle">12</text>
    <text x="338" y="258" text-anchor="middle">3</text>
    <text x="216" y="378" text-anchor="middle">6</text>
    <text x="100" y="258" text-anchor="middle">9</text>
  </g>
  <g transform="translate(440 130)">
    <rect width="280" height="240" rx="12" fill="#FAF7F1" stroke="#1B2240" stroke-width="3"/>
    <g font-family="Georgia, serif" font-size="22" fill="#1B2240">
      <g transform="translate(24 50)">
        <rect width="18" height="18" rx="3" fill="#D89B3A"/>
        <path d="M 4 9 L 8 13 L 14 5" stroke="#FAF7F1" stroke-width="2.5" fill="none"/>
        <text x="32" y="15">Warm bath</text>
      </g>
      <g transform="translate(24 95)">
        <rect width="18" height="18" rx="3" fill="#D89B3A"/>
        <path d="M 4 9 L 8 13 L 14 5" stroke="#FAF7F1" stroke-width="2.5" fill="none"/>
        <text x="32" y="15">Pajamas</text>
      </g>
      <g transform="translate(24 140)">
        <rect width="18" height="18" rx="3" fill="#D89B3A"/>
        <path d="M 4 9 L 8 13 L 14 5" stroke="#FAF7F1" stroke-width="2.5" fill="none"/>
        <text x="32" y="15">Story time</text>
      </g>
      <g transform="translate(24 185)">
        <rect width="18" height="18" rx="3" stroke="#1B2240" stroke-width="2" fill="none"/>
        <text x="32" y="15">Lights out</text>
      </g>
    </g>
  </g>
</svg>
